<?xml version="1.0" encoding="UTF-8"?>
<svg width="65px" height="56px" viewBox="0 0 65 56" version="1.1" xmlns="http://www.w3.org/2000/svg" xmlns:xlink="http://www.w3.org/1999/xlink">
    <!-- Generator: Sketch 41.2 (35397) - http://www.bohemiancoding.com/sketch -->
    <title>nothing to show</title>
    <desc>Created with Sketch.</desc>
    <defs>
        <polygon id="path-1" points="0 0.241728267 0 3.73386808 25.1202391 3.73386808 25.1202391 0.241728267 0 0.241728267"></polygon>
        <polygon id="path-3" points="0.4498 55.5763022 60.8926767 55.5763022 60.8926767 0.0776349376 0.4498 0.0776349376 0.4498 55.5763022"></polygon>
        <polygon id="path-5" points="2.74697953 0.241785562 0.142497602 0.241785562 0.142497602 1.88565409 2.74697953 1.88565409 2.74697953 0.241785562"></polygon>
        <polygon id="path-7" points="3.12895344 0.241785562 0.52455428 0.241785562 0.52455428 1.88565409 3.12895344 1.88565409 3.12895344 0.241785562"></polygon>
        <polygon id="path-9" points="3.14020048 0.241785562 0.535493254 0.241785562 0.535493254 1.88565409 3.14020048 1.88565409 3.14020048 0.241785562"></polygon>
        <polygon id="path-11" points="2.95695701 0.241785562 0.352342023 0.241785562 0.352342023 1.88565409 2.95695701 1.88565409 2.95695701 0.241785562"></polygon>
        <polygon id="path-13" points="2.94565344 0.241785562 0.341263762 0.241785562 0.341263762 1.88565409 2.94565344 1.88565409 2.94565344 0.241785562"></polygon>
        <polygon id="path-15" points="2.76272222 0.241785562 0.157947058 0.241785562 0.157947058 1.88565409 2.76272222 1.88565409 2.76272222 0.241785562"></polygon>
        <polygon id="path-17" points="3.14501885 0.241785562 0.540476681 0.241785562 0.540476681 1.88565409 3.14501885 1.88565409 3.14501885 0.241785562"></polygon>
        <polygon id="path-19" points="2.96196135 0.241785562 0.357176681 0.241785562 0.357176681 1.88565409 2.96196135 1.88565409 2.96196135 0.241785562"></polygon>
        <polygon id="path-21" points="0 55.5763022 64.6088696 55.5763022 64.6088696 0.0653164788 0 0.0653164788"></polygon>
    </defs>
    <g id="Page-1" stroke="none" stroke-width="1" fill="none" fill-rule="evenodd">
        <g id="desktop-LISTADO-Copy-2" transform="translate(-454.000000, -2393.000000)">
            <g id="nothing-to-show" transform="translate(454.000000, 2393.000000)">
                <g id="Group-15" transform="translate(0.000000, 0.507463)">
                    <path d="M20.4190435,55.10631 C20.4687826,55.1366764 20.532087,55.165324 20.5857826,55.1939716 L50.2223913,55.1939716 C50.237087,55.1848044 50.2591304,55.1762101 50.2743913,55.165897 C58.8555217,50.0087599 64.6088696,40.5235467 64.6088696,29.6775735 C64.6088696,13.3226709 51.5297391,0.0657175449 35.3967391,0.0657175449 C19.2631739,0.0657175449 6.18347826,13.3226709 6.18347826,29.6775735 C6.18347826,40.4811482 11.8921739,49.9354221 20.4190435,55.10631" id="Fill-1" fill="#ACEBAE"></path>
                    <g id="Group-5" transform="translate(0.000000, 27.501675)">
                        <mask id="mask-2" fill="white">
                            <use xlink:href="#path-1"></use>
                        </mask>
                        <g id="Clip-4"></g>
                        <path d="M23.3974565,0.241728267 L1.72193478,0.241728267 C0.770673913,0.241728267 -0.000282608695,1.02323421 -0.000282608695,1.9875117 C-0.000282608695,2.95178919 0.770673913,3.73386808 1.72193478,3.73386808 L25.1202391,3.73386808 L25.1202391,1.9875117 C25.1202391,1.02323421 24.3492826,0.241728267 23.3974565,0.241728267" id="Fill-3" fill="#FFFFFF" mask="url(#mask-2)"></path>
                    </g>
                    <g id="Group-8">
                        <mask id="mask-4" fill="white">
                            <use xlink:href="#path-3"></use>
                        </mask>
                        <g id="Clip-7"></g>
                        <path d="M58.2698435,46.9708561 C58.8978,46.0438204 59.7535391,44.4120544 59.1148435,43.0822338 C58.4388435,41.6750647 56.4690609,41.3948914 55.3894957,41.3490553 C56.0202783,40.4615533 57.0241043,38.7106133 56.3464087,37.2994336 C55.6585391,35.8682006 53.6322348,35.6023511 52.5656696,35.5639633 C53.1947565,34.6827638 54.2189304,32.9175 53.5361478,31.4954342 C52.8409304,30.0481585 50.7767565,29.7926221 49.7203652,29.758818 C50.3471913,28.8844939 51.3922783,27.1026145 50.7044087,25.6702356 C50.0046696,24.2132198 47.9150609,23.9634129 46.8660174,23.9324735 C46.8298435,23.8511144 46.7936696,23.7686094 46.7574957,23.6843855 C46.4104522,21.9025061 48.3429304,19.430793 47.6720174,17.7910056 C46.9898,16.1231436 43.8924087,15.763903 42.912887,14.2816773 C41.9260174,12.7879925 42.7783652,9.74963037 41.5286696,8.4834074 C40.2789739,7.21661148 37.2821913,8.0800495 35.8086696,7.07967606 C34.345887,6.08789689 33.9914957,2.94754935 32.346713,2.2559968 C30.7290609,1.57590329 28.2901478,3.53539765 26.532887,3.18303244 C24.8270609,2.84098035 23.3134087,0.0776349376 21.5086696,0.0776349376 C19.5089304,0.0776349376 17.3961478,1.25562336 17.3961478,5.16372601 L17.3961478,7.44464621 C12.1124957,10.226899 8.31932174,15.5066477 7.5348,21.7432256 C4.03497391,21.8555241 1.15349565,24.3936995 0.4498,27.7431744 L21.2305826,27.7431744 C22.1818435,27.7431744 22.9528,28.5252533 22.9528,29.4895308 C22.9528,30.4538083 22.1818435,31.2353142 21.2305826,31.2353142 L0.528365217,31.2353142 C1.33493043,34.3836831 4.07510435,36.7299197 7.38162609,36.9035241 L7.37993043,36.9230044 L12.3289739,36.9264421 C14.9481913,39.790627 18.4350174,41.825178 22.3672348,42.6021004 L22.3672348,52.6362012 L22.3700609,52.6367741 L22.3700609,55.5765886 L49.4445391,55.5542435 L49.4445391,49.6075792 C49.4445391,49.6075792 59.8841043,52.4104583 60.7924087,52.8338695 C61.3621478,51.928606 59.3663652,47.0396103 58.2698435,46.9708561" id="Fill-6" fill="#00C0F3" mask="url(#mask-4)"></path>
                    </g>
                    <path d="M60.7923522,52.8338122 C60.7872652,52.8418335 60.7861348,52.8544384 60.7804826,52.8613139 L60.7934826,52.8882426 C60.885613,52.8933991 60.8754391,52.8727729 60.7923522,52.8338122" id="Fill-9" fill="#00C0F3"></path>
                    <path d="M21.0841348,43.8165285 C25.4391348,44.4318785 29.6160913,43.3701992 33.1503957,40.7145687 C33.8733087,40.1714106 33.1701783,38.9275328 32.4370913,39.4781392 C29.2311783,41.8868276 25.4408304,42.9977807 21.4594391,42.4351423 C20.5686565,42.3090929 20.1843087,43.6893333 21.0841348,43.8165285" id="Fill-11" fill="#F4F4F4"></path>
                    <path d="M11.9402174,11.884849 C14.508,8.7697113 17.9959565,6.88240883 21.983,6.49165586 C22.8811304,6.40399427 22.8896087,4.9710424 21.983,5.05927694 C17.6257391,5.48612586 13.7607826,7.45192269 10.940913,10.8718706 C10.361,11.5754551 11.3552174,12.594736 11.9402174,11.884849" id="Fill-13" fill="#F4F4F4"></path>
                </g>
                <g id="Group-40" transform="translate(1.130435, 28.009139)">
                    <g id="Group-18" transform="translate(12.434783, 0.000000)">
                        <mask id="mask-6" fill="white">
                            <use xlink:href="#path-5"></use>
                        </mask>
                        <g id="Clip-17"></g>
                        <path d="M2.67816957,0.306357204 L1.75573478,1.70435903 C1.59408261,1.9495823 1.23799565,1.94499869 1.08199565,1.69691066 L0.205908696,0.298335882 C0.0357782609,0.0273297898 0.227952174,-0.327900183 0.54503913,-0.327900183 L2.34412609,-0.327900183 C2.66573478,-0.327900183 2.85734348,0.0353511118 2.67816957,0.306357204" id="Fill-16" fill="#0060A2" mask="url(#mask-6)"></path>
                    </g>
                    <g id="Group-21" transform="translate(9.608696, 0.000000)">
                        <mask id="mask-8" fill="white">
                            <use xlink:href="#path-7"></use>
                        </mask>
                        <g id="Clip-20"></g>
                        <path d="M3.06014348,0.306357204 L2.13827391,1.70435903 C1.97662174,1.9495823 1.61996957,1.94499869 1.46453478,1.69691066 L0.587882609,0.298335882 C0.417752174,0.0273297898 0.610491304,-0.327900183 0.927013043,-0.327900183 L2.7261,-0.327900183 C3.0477087,-0.327900183 3.23931739,0.0353511118 3.06014348,0.306357204" id="Fill-19" fill="#0060A2" mask="url(#mask-8)"></path>
                    </g>
                    <g id="Group-24" transform="translate(16.956522, 0.000000)">
                        <mask id="mask-10" fill="white">
                            <use xlink:href="#path-9"></use>
                        </mask>
                        <g id="Clip-23"></g>
                        <path d="M3.07173043,0.306357204 L2.14873043,1.70435903 C1.98707826,1.9495823 1.6309913,1.94499869 1.4749913,1.69691066 L0.598904348,0.298335882 C0.428773913,0.0273297898 0.620947826,-0.327900183 0.938034783,-0.327900183 L2.73712174,-0.327900183 C3.05873043,-0.327900183 3.25033913,0.0353511118 3.07173043,0.306357204" id="Fill-22" fill="#0060A2" mask="url(#mask-10)"></path>
                    </g>
                    <g id="Group-27" transform="translate(14.695652, 0.000000)">
                        <mask id="mask-12" fill="white">
                            <use xlink:href="#path-11"></use>
                        </mask>
                        <g id="Clip-26"></g>
                        <path d="M2.88848696,0.306357204 L1.96605217,1.70435903 C1.8044,1.9495823 1.44774783,1.94499869 1.29231304,1.69691066 L0.41566087,0.298335882 C0.245530435,0.0273297898 0.438269565,-0.327900183 0.755356522,-0.327900183 L2.55387826,-0.327900183 C2.87548696,-0.327900183 3.06709565,0.0353511118 2.88848696,0.306357204" id="Fill-25" fill="#0060A2" mask="url(#mask-12)"></path>
                    </g>
                    <g id="Group-30" transform="translate(7.347826, 0.000000)">
                        <mask id="mask-14" fill="white">
                            <use xlink:href="#path-13"></use>
                        </mask>
                        <g id="Clip-29"></g>
                        <path d="M2.87684348,0.306357204 L1.9544087,1.70435903 C1.79332174,1.9495823 1.43666957,1.94499869 1.28123478,1.69691066 L0.404582609,0.298335882 C0.234452174,0.0273297898 0.427191304,-0.327900183 0.744278261,-0.327900183 L2.5428,-0.327900183 C2.8644087,-0.327900183 3.05601739,0.0353511118 2.87684348,0.306357204" id="Fill-28" fill="#0060A2" mask="url(#mask-14)"></path>
                    </g>
                    <g id="Group-33" transform="translate(5.086957, 0.000000)">
                        <mask id="mask-16" fill="white">
                            <use xlink:href="#path-15"></use>
                        </mask>
                        <g id="Clip-32"></g>
                        <path d="M2.69416522,0.306357204 L1.77116522,1.70435903 C1.61007826,1.9495823 1.25342609,1.94499869 1.0979913,1.69691066 L0.22133913,0.298335882 C0.0512086957,0.0273297898 0.243382609,-0.327900183 0.5616,-0.327900183 L2.35955652,-0.327900183 C2.68173043,-0.327900183 2.87277391,0.0353511118 2.69416522,0.306357204" id="Fill-31" fill="#0060A2" mask="url(#mask-16)"></path>
                    </g>
                    <g id="Group-36" transform="translate(2.260870, 0.000000)">
                        <mask id="mask-18" fill="white">
                            <use xlink:href="#path-17"></use>
                        </mask>
                        <g id="Clip-35"></g>
                        <path d="M3.07670435,0.306357204 L2.15370435,1.70435903 C1.99205217,1.9495823 1.63596522,1.94499869 1.47996522,1.69691066 L0.603878261,0.298335882 C0.433747826,0.0273297898 0.625921739,-0.327900183 0.943573913,-0.327900183 L2.74209565,-0.327900183 C3.06426957,-0.327900183 3.25474783,0.0353511118 3.07670435,0.306357204" id="Fill-34" fill="#0060A2" mask="url(#mask-18)"></path>
                    </g>
                    <g id="Group-39">
                        <mask id="mask-20" fill="white">
                            <use xlink:href="#path-19"></use>
                        </mask>
                        <g id="Clip-38"></g>
                        <path d="M2.89340435,0.306357204 L1.97096957,1.70435903 C1.80875217,1.9495823 1.45323043,1.94499869 1.29666522,1.69691066 L0.420578261,0.298335882 C0.250447826,0.0273297898 0.442621739,-0.327900183 0.760273913,-0.327900183 L2.55879565,-0.327900183 C2.88096957,-0.327900183 3.07201304,0.0353511118 2.89340435,0.306357204" id="Fill-37" fill="#0060A2" mask="url(#mask-20)"></path>
                    </g>
                </g>
                <g id="Group-55" transform="translate(0.000000, 0.507463)">
                    <path d="M24.6979087,18.5196281 C24.6979087,20.2940592 26.1171696,21.7327405 27.8670826,21.7327405 C29.6186913,21.7327405 31.037387,20.2940592 31.037387,18.5196281 C31.037387,16.7446242 29.6186913,15.3065157 27.8670826,15.3065157 C26.1171696,15.3065157 24.6979087,16.7446242 24.6979087,18.5196281 L24.6979087,18.5196281 Z" id="Fill-41" fill="#00A651"></path>
                    <path d="M6.22016087,18.5196281 C6.22016087,20.2940592 7.63942174,21.7327405 9.3899,21.7327405 C11.1409435,21.7327405 12.5602043,20.2940592 12.5602043,18.5196281 C12.5602043,16.7446242 11.1409435,15.3065157 9.3899,15.3065157 C7.63942174,15.3065157 6.22016087,16.7446242 6.22016087,18.5196281" id="Fill-43" fill="#00A651"></path>
                    <path d="M40.1320739,16.547357 C39.5176826,16.547357 39.0202913,17.0527002 39.0202913,17.6749256 L39.0202913,19.0001626 C39.0202913,19.6235339 39.5176826,20.1277313 40.1320739,20.1277313 C40.7470304,20.1277313 41.2444217,19.6235339 41.2444217,19.0001626 L41.2444217,17.6749256 C41.2444217,17.0527002 40.7470304,16.547357 40.1320739,16.547357" id="Fill-45" fill="#FFFFFF"></path>
                    <mask id="mask-22" fill="white">
                        <use xlink:href="#path-21"></use>
                    </mask>
                    <g id="Clip-48"></g>
                    <polygon id="Fill-47" fill="#00C0F3" mask="url(#mask-22)" points="39.902087 19.3256564 40.3621739 19.3256564 40.3621739 15.604336 39.902087 15.604336"></polygon>
                    <path d="M45.2560522,25.2938064 C44.6416609,25.2938064 44.1442696,25.7991497 44.1442696,26.4213751 L44.1442696,27.7466121 C44.1442696,28.3699834 44.6416609,28.8741808 45.2560522,28.8741808 C45.8710087,28.8741808 46.3684,28.3699834 46.3684,27.7466121 L46.3684,26.4213751 C46.3684,25.7991497 45.8710087,25.2938064 45.2560522,25.2938064" id="Fill-49" fill="#FFFFFF" mask="url(#mask-22)"></path>
                    <polygon id="Fill-50" fill="#00C0F3" mask="url(#mask-22)" points="45.0257826 28.0723351 45.4858696 28.0723351 45.4858696 24.3510146 45.0257826 24.3510146"></polygon>
                    <path d="M49.2125739,34.3731981 C48.5981826,34.3731981 48.1007913,34.8785413 48.1007913,35.5007667 L48.1007913,36.8260037 C48.1007913,37.449375 48.5981826,37.9535724 49.2125739,37.9535724 C49.8275304,37.9535724 50.3249217,37.449375 50.3249217,36.8260037 L50.3249217,35.5007667 C50.3249217,34.8785413 49.8275304,34.3731981 49.2125739,34.3731981" id="Fill-51" fill="#FFFFFF" mask="url(#mask-22)"></path>
                    <polygon id="Fill-52" fill="#00C0F3" mask="url(#mask-22)" points="48.9823043 37.1518986 49.4423913 37.1518986 49.4423913 33.4305781 48.9823043 33.4305781"></polygon>
                    <path d="M52.680013,43.2860899 C52.0650565,43.2860899 51.5682304,43.7914332 51.5682304,44.4136586 L51.5682304,45.7388956 C51.5682304,46.3622669 52.0650565,46.8664643 52.680013,46.8664643 C53.2949696,46.8664643 53.7917957,46.3622669 53.7917957,45.7388956 L53.7917957,44.4136586 C53.7917957,43.7914332 53.2949696,43.2860899 52.680013,43.2860899" id="Fill-53" fill="#FFFFFF" mask="url(#mask-22)"></path>
                    <polygon id="Fill-54" fill="#00C0F3" mask="url(#mask-22)" points="52.4493478 46.0647332 52.9094348 46.0647332 52.9094348 42.3434127 52.4493478 42.3434127"></polygon>
                </g>
            </g>
        </g>
    </g>
</svg>